<svg version="1.1" xmlns="http://www.w3.org/2000/svg" viewBox="0 0 337.87857867662035 152.2593304127173" width="337.87857867662035" height="152.2593304127173" class="excalidraw-svg">
  <!-- svg-source:excalidraw -->
  
  <defs>
    <style class="style-fonts">
      @font-face {
        font-family: "Virgil";
        src: url("https://excalidraw.com/Virgil.woff2");
      }
      @font-face {
        font-family: "Cascadia";
        src: url("https://excalidraw.com/Cascadia.woff2");
      }
      @font-face {
        font-family: "Assistant";
        src: url("https://excalidraw.com/Assistant-Regular.woff2");
      }
    </style>
    
  </defs>
  <rect x="0" y="0" width="337.87857867662035" height="152.2593304127173" fill="#ffffff"/><g stroke-linecap="round"><g transform="translate(11.958380166441202 137.1523749406684) rotate(0 24.4097900390625 -61.45921325683594)"><path d="M-1.96 3.03 C13.68 -46.49, 37.16 -86.71, 46.54 -126.3 M1 -0.22 C19.18 -45, 39.61 -91.78, 49.5 -124.35" stroke="#1e1e1e" stroke-width="2" fill="none"/></g></g><mask/><g stroke-linecap="round"><g transform="translate(279.7589172758162 137.1523749406684) rotate(0 24.4097900390625 -61.45921325683594)"><path d="M0.62 2.57 C18.77 -36.93, 36.92 -75.68, 45.64 -119.93 M-1.17 -1.94 C17.45 -44.64, 36.3 -88.47, 47.96 -123.76" stroke="#1e1e1e" stroke-width="2" fill="none"/></g></g><mask/><g stroke-linecap="round"><g transform="translate(60.3883118070662 12.113861757074659) rotate(0 133.28890991210938 0)"><path d="M1.51 2.08 C90.27 1.37, 176.17 0, 267.49 -0.52 M-0.63 1.23 C81.79 -2.69, 164.65 -2.68, 267.48 -1.2" stroke="#1e1e1e" stroke-width="2" fill="none"/></g></g><mask/><g stroke-linecap="round"><g transform="translate(13.743536416441202 139.73800726488716) rotate(0 132.50143432617188 0)"><path d="M0.86 0.92 C68.41 4.37, 135.55 1.26, 265.45 0.64 M-0.77 1.31 C78.48 -1.04, 152.84 0.76, 264.39 -0.32" stroke="#1e1e1e" stroke-width="2" fill="none"/></g></g><mask/></svg>