<svg version="1.1" xmlns="http://www.w3.org/2000/svg" viewBox="0 0 322.83837890625 171.49270629882812" width="322.83837890625" height="171.49270629882812" class="excalidraw-svg">
  <!-- svg-source:excalidraw -->
  
  <defs>
    <style class="style-fonts">
      @font-face {
        font-family: "Virgil";
        src: url("https://excalidraw.com/Virgil.woff2");
      }
      @font-face {
        font-family: "Cascadia";
        src: url("https://excalidraw.com/Cascadia.woff2");
      }
      @font-face {
        font-family: "Assistant";
        src: url("https://excalidraw.com/Assistant-Regular.woff2");
      }
    </style>
    
  </defs>
  <rect x="0" y="0" width="322.83837890625" height="171.49270629882812" fill="#ffffff"/><g stroke-linecap="round" transform="translate(10 10) rotate(0 151.419189453125 75.74635314941406)"><path d="M190 19 C212.6 34.02, 237.23 43.02, 264.84 57 M190 19 C215.89 33.42, 246.41 47.3, 264.84 57 M264.84 57 C300.3 75.5, 301.44 77.47, 264.84 95 M264.84 57 C299.41 74.16, 299.86 79.57, 264.84 95 M264.84 95 C250.9 106.47, 227.2 115.43, 190 132.49 M264.84 95 C243.58 105.72, 220.89 115.47, 190 132.49 M190 132.49 C155.57 154.59, 148.04 153.95, 114 132.49 M190 132.49 C154.42 154.83, 155.39 150.94, 114 132.49 M114 132.49 C102.48 125.5, 82.05 118.31, 38 95 M114 132.49 C89.37 118.38, 63.06 106.53, 38 95 M38 95 C2.54 78.63, 3.13 77.82, 38 57 M38 95 C1.11 73.47, -1.3 72.35, 38 57 M38 57 C67.23 41.82, 100.14 29.77, 114 19 M38 57 C52.47 48.7, 68.95 41.38, 114 19 M114 19 C148.4 1.05, 148.53 0.2, 190 19 M114 19 C148.84 -1.09, 152.2 -0.08, 190 19" stroke="#1e1e1e" stroke-width="2" fill="none"/></g></svg>