<svg version="1.1" xmlns="http://www.w3.org/2000/svg" viewBox="0 0 257.25653076171875 134.49160766601562" width="257.25653076171875" height="134.49160766601562" class="excalidraw-svg">
  <!-- svg-source:excalidraw -->
  
  <defs>
    <style class="style-fonts">
      @font-face {
        font-family: "Virgil";
        src: url("https://excalidraw.com/Virgil.woff2");
      }
      @font-face {
        font-family: "Cascadia";
        src: url("https://excalidraw.com/Cascadia.woff2");
      }
      @font-face {
        font-family: "Assistant";
        src: url("https://excalidraw.com/Assistant-Regular.woff2");
      }
    </style>
    
  </defs>
  <rect x="0" y="0" width="257.25653076171875" height="134.49160766601562" fill="#ffffff"/><g stroke-linecap="round" transform="translate(10 10) rotate(0 118.62826538085938 57.24580383300781)"><path d="M28.62 0 C83.09 -0.83, 133.47 -2.6, 208.63 0 M28.62 0 C82.63 0.74, 135.11 0.27, 208.63 0 M208.63 0 C227.09 -3.45, 234.23 11.44, 237.26 28.62 M208.63 0 C227.69 -4.18, 234.82 12.72, 237.26 28.62 M237.26 28.62 C237.16 49.95, 241.18 66.41, 237.26 85.87 M237.26 28.62 C237.9 43.35, 236.04 57.25, 237.26 85.87 M237.26 85.87 C240 104.78, 229.88 113.83, 208.63 114.49 M237.26 85.87 C233.22 108.77, 228.47 116.07, 208.63 114.49 M208.63 114.49 C164.46 116.63, 128.5 115.18, 28.62 114.49 M208.63 114.49 C159.98 115.67, 111.7 116.12, 28.62 114.49 M28.62 114.49 C6.94 112.8, 2.37 103.08, 0 85.87 M28.62 114.49 C13.83 112.02, 3.1 103.8, 0 85.87 M0 85.87 C2.04 73.68, -3.3 58.53, 0 28.62 M0 85.87 C1.35 64.79, -2.06 44.57, 0 28.62 M0 28.62 C3.22 11.7, 10.83 3.28, 28.62 0 M0 28.62 C-1.36 9.82, 5.19 -0.52, 28.62 0" stroke="#1e1e1e" stroke-width="2" fill="none"/></g></svg>